<svg width="138" height="44" viewBox="0 0 138 44" fill="none" xmlns="http://www.w3.org/2000/svg">
<path d="M31.5981 22.7466L29.2888 26.7879H3.50173L1 22.7466L14.086 1.00085H18.897L31.5981 22.7466ZM31.5981 22.7466H9.65983L16.5 11.4999" stroke="#183AA0"/>
<path d="M3.69519 26.9795L14.4719 8.1203L20.0526 17.9348M12.5475 17.9348H24.4788L14.087 1" stroke="#183AA0"/>
<path d="M41.9374 25.1299V6.48648H47.2001C48.822 6.48648 50.2561 6.84501 51.5024 7.56207C52.7487 8.27912 53.709 9.29921 54.3834 10.6223C55.0663 11.9455 55.412 13.465 55.4206 15.1808V16.3716C55.4206 18.1301 55.0791 19.6709 54.3962 20.994C53.7218 22.3172 52.753 23.333 51.4896 24.0415C50.2347 24.75 48.7708 25.1128 47.0976 25.1299H41.9374ZM44.3959 8.5096V23.1196H46.9824C48.8775 23.1196 50.35 22.5306 51.4 21.3525C52.4585 20.1745 52.9877 18.4971 52.9877 16.3204V15.232C52.9877 13.115 52.4883 11.4717 51.4896 10.3022C50.4994 9.12422 49.0909 8.52667 47.2641 8.5096H44.3959ZM61.7844 25.1299H59.326V6.48648H61.7844V25.1299ZM80.0565 22.6842C79.4248 23.5891 78.5413 24.2677 77.406 24.7201C76.2792 25.164 74.9646 25.386 73.4622 25.386C71.9427 25.386 70.5939 25.0317 69.4159 24.3232C68.2379 23.6061 67.3245 22.5903 66.6758 21.2757C66.0355 19.9611 65.7069 18.4374 65.6898 16.7045V15.0783C65.6898 12.2699 66.3428 10.0931 67.6489 8.54801C68.9635 7.00293 70.8074 6.23039 73.1805 6.23039C75.1267 6.23039 76.6932 6.72977 77.8797 7.72852C79.0663 8.71874 79.7919 10.1272 80.0565 11.954H77.598C77.1371 9.48701 75.6688 8.25351 73.1933 8.25351C71.5457 8.25351 70.2952 8.83398 69.4415 9.99493C68.5964 11.1473 68.1696 12.8205 68.1611 15.0143V16.538C68.1611 18.6294 68.6391 20.294 69.5952 21.5318C70.5513 22.761 71.8445 23.3757 73.475 23.3757C74.3969 23.3757 75.2036 23.2732 75.895 23.0684C76.5865 22.8635 77.1584 22.5178 77.6108 22.0312V17.8441H73.2957V15.8466H80.0565V22.6842ZM86.8045 25.1299H84.346V6.48648H86.8045V25.1299ZM103.809 8.5096H97.8164V25.1299H95.3707V8.5096H89.391V6.48648H103.809V8.5096ZM115.845 20.2642H108.034L106.28 25.1299H103.745L110.864 6.48648H113.015L120.147 25.1299H117.625L115.845 20.2642ZM108.777 18.241H115.115L111.94 9.52116L108.777 18.241ZM125.128 23.1196H133.964V25.1299H122.657V6.48648H125.128V23.1196Z" fill="#183AA0"/>
<path d="M46.1221 36.72H42.4871V39.1812H46.7532V40.7021H40.5938V31.5136H46.7406V33.0471H42.4871V35.237H46.1221V36.72ZM55.0771 37.6414C55.0056 38.6301 54.6396 39.4084 53.9791 39.9764C53.3227 40.5444 52.4561 40.8284 51.379 40.8284C50.201 40.8284 49.2733 40.4329 48.5959 39.6419C47.9228 38.8468 47.5862 37.7571 47.5862 36.3729V35.8113C47.5862 34.9278 47.7419 34.1494 48.0532 33.4763C48.3645 32.8031 48.8084 32.2877 49.3848 31.9301C49.9654 31.5683 50.6385 31.3874 51.4043 31.3874C52.4645 31.3874 53.3185 31.6714 53.9664 32.2394C54.6143 32.8073 54.9888 33.6046 55.0898 34.6312H53.1965C53.1502 34.0379 52.9841 33.6088 52.698 33.3438C52.4161 33.0745 51.9848 32.9399 51.4043 32.9399C50.7732 32.9399 50.2999 33.167 49.9843 33.6214C49.673 34.0716 49.5131 34.7721 49.5047 35.7229V36.4171C49.5047 37.41 49.6541 38.1358 49.9528 38.5943C50.2557 39.0529 50.7311 39.2822 51.379 39.2822C51.9638 39.2822 52.3993 39.1497 52.6853 38.8846C52.9756 38.6154 53.1418 38.201 53.1839 37.6414H55.0771ZM63.8681 36.3161C63.8681 37.2207 63.7082 38.0137 63.3885 38.6953C63.0687 39.3769 62.6101 39.9028 62.0127 40.273C61.4195 40.6432 60.7379 40.8284 59.968 40.8284C59.2065 40.8284 58.527 40.6454 57.9296 40.2793C57.3322 39.9133 56.8694 39.3916 56.5412 38.7142C56.2131 38.0327 56.0469 37.2501 56.0427 36.3666V35.9122C56.0427 35.0077 56.2047 34.2125 56.5286 33.5268C56.8568 32.8368 57.3175 32.3088 57.9107 31.9428C58.5081 31.5725 59.1897 31.3874 59.9554 31.3874C60.7211 31.3874 61.4006 31.5725 61.9938 31.9428C62.5912 32.3088 63.0519 32.8368 63.3758 33.5268C63.704 34.2125 63.8681 35.0056 63.8681 35.9059V36.3161ZM61.9496 35.8996C61.9496 34.9362 61.7771 34.2041 61.4321 33.7035C61.0871 33.2028 60.5949 32.9525 59.9554 32.9525C59.3201 32.9525 58.83 33.2007 58.485 33.6972C58.14 34.1894 57.9654 34.913 57.9612 35.8681V36.3161C57.9612 37.2543 58.1337 37.9822 58.4787 38.4997C58.8237 39.0172 59.3201 39.2759 59.968 39.2759C60.6033 39.2759 61.0913 39.0277 61.4321 38.5312C61.7729 38.0306 61.9454 37.3027 61.9496 36.3477V35.8996ZM72.7158 40.7021H70.8226L67.1371 34.6564V40.7021H65.2438V31.5136H67.1371L70.8289 37.572V31.5136H72.7158V40.7021ZM81.917 36.3161C81.917 37.2207 81.7571 38.0137 81.4374 38.6953C81.1176 39.3769 80.659 39.9028 80.0616 40.273C79.4684 40.6432 78.7868 40.8284 78.0169 40.8284C77.2554 40.8284 76.5759 40.6454 75.9785 40.2793C75.3811 39.9133 74.9183 39.3916 74.5901 38.7142C74.262 38.0327 74.0958 37.2501 74.0916 36.3666V35.9122C74.0916 35.0077 74.2536 34.2125 74.5775 33.5268C74.9057 32.8368 75.3664 32.3088 75.9596 31.9428C76.557 31.5725 77.2386 31.3874 78.0043 31.3874C78.77 31.3874 79.4495 31.5725 80.0427 31.9428C80.6401 32.3088 81.1008 32.8368 81.4248 33.5268C81.7529 34.2125 81.917 35.0056 81.917 35.9059V36.3161ZM79.9985 35.8996C79.9985 34.9362 79.826 34.2041 79.481 33.7035C79.136 33.2028 78.6438 32.9525 78.0043 32.9525C77.369 32.9525 76.8789 33.2007 76.5339 33.6972C76.1889 34.1894 76.0143 34.913 76.0101 35.8681V36.3161C76.0101 37.2543 76.1826 37.9822 76.5276 38.4997C76.8726 39.0172 77.369 39.2759 78.0169 39.2759C78.6522 39.2759 79.1402 39.0277 79.481 38.5312C79.8218 38.0306 79.9943 37.3027 79.9985 36.3477V35.8996ZM85.7666 31.5136L88.1268 38.1778L90.4744 31.5136H92.9609V40.7021H91.0613V38.1904L91.2507 33.8549L88.7705 40.7021H87.4705L84.9967 33.8612L85.186 38.1904V40.7021H83.2927V31.5136H85.7666ZM97.6057 35.6535L99.5178 31.5136H101.588L98.5712 37.37V40.7021H96.6464V37.37L93.6298 31.5136H95.7061L97.6057 35.6535Z" fill="#C23C2C"/>
</svg>
