<svg width="18" height="20" viewBox="0 0 18 20" fill="none" xmlns="http://www.w3.org/2000/svg">
<path d="M9.41371 15.5985L8.93328 14.7215H8.93328L9.41371 15.5985ZM8.5864 15.5985L9.06683 14.7215H9.06683L8.5864 15.5985ZM14.2223 7.48051C14.2223 9.42609 13.2862 11.0324 12.1102 12.2857C10.9327 13.5404 9.58167 14.3663 8.93328 14.7215L9.89414 16.4756C10.6361 16.0691 12.1893 15.1241 13.5686 13.6543C14.9492 12.183 16.2223 10.1111 16.2223 7.48051H14.2223ZM9.00005 2C11.8463 2 14.2223 4.41498 14.2223 7.48051H16.2223C16.2223 3.38786 13.0267 0 9.00005 0V2ZM3.77783 7.48051C3.77783 4.41498 6.15384 2 9.00005 2V0C4.97339 0 1.77783 3.38786 1.77783 7.48051H3.77783ZM9.06683 14.7215C8.41844 14.3663 7.06738 13.5405 5.88995 12.2857C4.71391 11.0324 3.77783 9.42609 3.77783 7.48051H1.77783C1.77783 10.1111 3.05086 12.183 4.43152 13.6543C5.81078 15.1241 7.36401 16.0691 8.10597 16.4756L9.06683 14.7215ZM8.93328 14.7215C8.95138 14.7116 8.97465 14.7051 9.00005 14.7051C9.02546 14.7051 9.04873 14.7116 9.06683 14.7215L8.10597 16.4756C8.66452 16.7815 9.33559 16.7815 9.89414 16.4756L8.93328 14.7215ZM10.6668 7.48045C10.6668 8.50078 9.8827 9.25781 9.00016 9.25781V11.2578C11.0631 11.2578 12.6668 9.52791 12.6668 7.48045H10.6668ZM9.00016 5.70309C9.88269 5.70309 10.6668 6.46012 10.6668 7.48045H12.6668C12.6668 5.433 11.0631 3.70309 9.00016 3.70309V5.70309ZM7.3335 7.48045C7.3335 6.46012 8.11763 5.70309 9.00016 5.70309V3.70309C6.93718 3.70309 5.3335 5.433 5.3335 7.48045H7.3335ZM9.00016 9.25781C8.11763 9.25781 7.3335 8.50078 7.3335 7.48045H5.3335C5.3335 9.52791 6.93718 11.2578 9.00016 11.2578V9.25781Z" fill="white"/>
<path d="M15.9282 15.4002C16.6303 15.765 17 16.1789 17 16.6002C17 17.0215 16.6304 17.4353 15.9282 17.8002C15.2261 18.165 14.2162 18.468 13 18.6787C11.7838 18.8893 10.4043 19.0002 9 19.0002C7.59571 19.0002 6.21615 18.8893 5 18.6787C3.78385 18.468 2.77394 18.165 2.0718 17.8002C1.36965 17.4353 1 17.0215 1 16.6002C1 16.1789 1.36965 15.765 2.0718 15.4002" stroke="white" stroke-width="2" stroke-linecap="round"/>
</svg>
