<svg width="47" height="33" viewBox="0 0 47 33" fill="none" xmlns="http://www.w3.org/2000/svg">
<mask id="path-1-inside-1_2606_24360" fill="white">
<path d="M27.2094 0.25C27.7449 0.359624 28.2601 0.407307 28.3455 1.17959C28.389 1.57293 28.9154 1.61317 29.3039 1.62379C30.0009 1.64295 30.1831 1.75654 30.1416 2.38307C30.1082 2.88906 30.2703 3.03876 30.7395 3.08042C31.3572 3.13524 31.936 3.31282 32.5862 3.06078C33.1713 2.83409 33.5059 3.13334 33.7837 3.84383C33.8426 3.99433 33.927 4.19504 34.1014 4.08653C34.8964 3.59195 35.8457 3.97722 36.6974 3.54078C37.2631 3.25088 38.0693 3.38221 38.6369 3.93223C38.9114 4.19821 39.2371 4.32605 39.5777 4.09223C39.9389 3.84431 40.2381 4.07243 40.4239 4.26522C41.0144 4.8775 41.681 4.69548 42.3585 4.56526C42.4491 4.54783 42.537 4.51488 42.6261 4.48922C42.994 4.38292 42.6491 5.23441 43.0616 4.87148C43.2801 4.67916 43.433 4.63892 43.6801 4.60867C44.8062 4.47069 45.6365 5.11465 46.5 5.68542L46.087 6.66364C46.0571 6.65598 46.0271 6.64896 45.9969 6.64257C45.752 6.59109 45.5284 6.15893 45.4546 6.27711C45.3019 6.52107 44.9947 6.7297 45.0346 7.07093C45.0858 7.50879 44.871 7.61224 44.4864 7.63077C44.1439 7.64725 43.794 7.7084 43.5288 7.98135C43.3128 8.20392 43.0569 8.20836 42.7505 8.19648C41.9589 8.16574 41.5329 8.54468 41.4339 9.35371C41.3322 10.1835 40.5638 10.4813 40.1573 11.0657C40.026 11.2545 39.9081 11.0098 39.8376 10.8839C39.515 10.3075 39.7149 9.77177 40.0026 9.2661C40.1418 9.02151 40.3655 8.82697 40.5421 8.6025C40.6492 8.46642 40.928 8.37897 40.801 8.16733C40.6887 7.98008 40.4305 7.92923 40.2068 7.93509C39.9273 7.94254 39.7381 8.1358 39.6093 8.35521C39.3848 8.73763 39.1202 8.68139 38.7312 8.61105C37.717 8.42777 36.667 8.32052 35.9607 9.34674C35.7737 9.61842 35.195 9.65803 35.3715 10.0992C35.5376 10.5144 36.049 10.2397 36.3954 10.3473C36.6513 10.4267 36.9964 10.3376 37.0078 10.685C37.0201 11.0595 37.3981 11.4787 36.9764 11.8123C36.8455 11.9159 36.7274 11.979 36.7096 12.1553C36.7007 12.2442 36.7036 12.3787 36.5959 12.3783C36.4939 12.378 36.5051 12.2453 36.4945 12.1599C36.4868 12.0968 36.4922 12.0324 36.4849 11.9692C36.4648 11.7919 36.5423 11.5996 36.4058 11.4401C36.3582 11.6195 36.3418 11.816 36.2574 11.9758C35.8557 12.7389 35.4274 13.4597 34.4884 13.6894C33.628 13.8998 33.5425 14.0774 33.7494 14.9534C33.8249 15.2728 33.8266 15.5448 33.4869 15.6577C33.1585 15.7669 33.0563 15.4594 32.943 15.2465C32.8556 15.0824 32.8066 14.8894 32.7782 14.7036C32.7365 14.4314 32.5866 14.4069 32.3763 14.4848C32.2126 14.5455 32.0388 14.7511 31.8894 14.5075C31.7863 14.3394 31.7206 14.2282 31.5719 14.439C31.4828 14.5653 31.3425 14.7209 31.3599 14.8438C31.3978 15.1112 31.5945 14.8948 31.7224 14.9073C32.088 14.9434 32.4325 14.9873 31.9521 15.4218C31.7342 15.6189 31.7993 15.8768 31.8493 16.1341C32.1045 17.448 31.5459 18.4186 30.3091 18.8641C30.0001 18.9754 29.6141 18.9564 29.4807 19.3957C29.3957 19.6756 29.2687 19.6519 29.1452 19.3716C28.996 19.0328 28.7726 19.2497 28.6051 19.3678C28.3777 19.5285 28.374 19.7297 28.585 19.9225C28.6786 20.008 28.7788 20.0869 28.8664 20.1783C29.4635 20.8017 29.2533 21.6744 28.4407 21.9999C28.2167 22.0897 28.1823 21.9354 28.0926 21.8071C27.8486 21.4581 27.4275 21.0463 27.1142 21.332C26.71 21.7008 27.1375 22.1388 27.4591 22.4492C27.6957 22.6775 27.9743 22.9523 27.9142 23.2489C27.7768 23.9272 28.3727 24.3397 28.4106 24.9406C28.4277 25.2115 28.6865 25.252 28.9019 25.3122C29.5336 25.4889 30.1218 25.8539 30.8201 25.7441C30.9401 25.7252 31.1165 25.7739 31.1253 25.9041C31.1379 26.0888 30.9476 26.0356 30.8364 26.0457C30.04 26.1178 29.2247 25.9825 28.5085 25.7517C27.9562 25.5738 27.4889 24.9333 27.1301 24.3988C26.832 23.9537 26.5053 23.5288 26.1519 23.1269C26.0485 23.0095 25.8553 22.9354 25.9802 22.7578C26.1211 22.5575 26.3268 22.6363 26.4729 22.766C26.685 22.9544 26.8701 23.1736 27.0691 23.3772C27.1351 23.4447 27.2295 23.5185 27.3094 23.4505C27.403 23.371 27.3028 23.2845 27.2537 23.2154C26.7354 22.4842 26.5411 21.6729 26.6122 20.779C26.6388 20.4457 26.5848 20.1121 26.0942 20.2188C25.6722 20.3107 25.6834 19.9047 25.5368 19.6956C24.9217 18.818 24.6933 18.7955 23.9031 19.5069C23.7217 19.6702 23.5228 19.8139 23.3243 19.9559C22.6418 20.4443 22.4619 21.1678 22.8126 21.9709C22.8844 22.1355 23.0604 22.3177 22.866 22.4844C22.6869 22.638 22.5359 22.4436 22.3653 22.3849C21.5779 22.1135 21.2812 21.452 21.173 20.7402C21.0116 19.6799 20.2201 19.067 19.6543 18.2903C19.5091 18.0908 19.2923 18.0487 19.0648 18.0447C18.7806 18.0397 18.494 18.0143 18.2126 18.0421C18.0375 18.0593 17.8708 18.0337 17.7064 17.9974C17.4261 17.9356 17.2599 18.2987 17.4885 18.4734C17.5975 18.5567 17.7159 18.6326 17.8167 18.7229C17.9983 18.8855 17.8114 18.984 17.7586 19.1218C17.4249 19.9939 16.5926 20.2184 15.8776 20.5496C15.4305 20.7567 15.0071 21.0697 14.484 21.1007C14.3869 21.1065 14.2903 21.1579 14.2903 21.2698C14.2903 21.4208 14.4088 21.4936 14.5348 21.505C14.8551 21.5342 15.1373 21.358 15.4437 21.3088C15.8704 21.2403 16.0762 21.5321 15.8859 21.9232C15.5106 22.6952 15.0279 23.4073 14.3366 23.95C13.278 24.7812 13.1772 25.1207 13.5742 26.3657C13.8853 27.3414 13.8488 27.4886 13.005 28.134C12.683 28.3803 12.4071 28.606 12.5672 29.0723C12.6306 29.2567 12.6461 29.5087 12.4946 29.614C11.8893 30.0356 11.6912 30.7367 11.3111 31.307C10.7001 32.2238 9.7637 32.1798 8.86281 32.2488C8.58048 32.2705 8.36759 31.9882 8.339 31.7676C8.23593 30.9734 7.84534 30.2506 7.57464 29.5502C7.15813 28.4725 6.84563 27.5434 7.26293 26.4071C7.38265 26.0809 7.2249 25.5421 7.01201 25.2253C6.65537 24.6944 6.48584 24.1596 6.50234 23.5351C6.50752 23.3362 6.40021 23.0884 6.20131 23.1175C5.65895 23.1971 5.21903 22.6933 4.76466 22.7964C4.25483 22.9122 3.6966 22.811 3.22809 23.1049C2.91339 23.3023 2.63499 23.2229 2.34841 23.033C1.62883 22.5561 1.22112 21.7761 0.593297 21.2102C0.527466 21.1508 0.487715 21.0342 0.503427 20.9466C0.719301 19.7414 0.306407 18.3554 1.43433 17.4098C1.98265 16.9501 2.19915 16.2456 2.72674 15.7745C2.94827 15.5766 2.95848 15.3087 2.62179 15.1763C2.39727 15.0879 2.16318 14.9607 2.23623 14.7163C2.358 14.309 2.12358 13.8797 2.3283 13.5069C2.51212 13.1725 2.86909 13.2332 3.18174 13.25C4.11358 13.3 4.19874 13.2279 4.03314 12.2698C3.96307 11.864 4.05891 11.6747 4.40283 11.4237C4.80174 11.1326 5.1829 10.794 5.58841 10.5052C6.24074 10.0404 6.31443 9.85985 5.84859 9.15395C5.70279 8.93311 5.6082 8.71703 5.5507 8.46832C5.39076 7.77541 5.49854 7.47727 6.14726 7.16994C6.5999 6.9556 6.93927 6.67505 7.13833 6.20629C7.48414 5.39188 8.1503 4.93025 8.93886 4.62419C9.26251 4.49857 9.60062 4.41096 9.92647 4.29041C10.507 4.0756 11.0029 3.97627 11.5292 4.53785C11.8756 4.90744 12.5366 4.85057 12.9952 5.15029C13.1511 5.25231 13.3933 5.26989 13.4909 5.40391C13.8727 5.9278 14.1525 6.19901 14.3693 5.29271C14.4191 5.08471 14.7489 5.01532 14.9268 5.22887C15.197 5.55346 15.4404 5.47742 15.7471 5.29889C16.2614 4.99948 16.8582 5.15124 17.4121 5.04241C18.0001 4.92692 17.6144 4.6714 17.5386 4.45104L17.5492 4.43789C18.0117 4.53342 18.472 4.64225 18.9376 4.71892C19.1839 4.75948 19.3575 4.7655 19.434 4.37658C19.6001 3.53238 19.9761 3.37318 20.8954 3.46047C21.2243 3.49167 21.5423 3.43448 21.8756 3.58292C22.0681 3.66862 22.4132 3.63092 22.4666 3.28621C22.5411 2.80541 22.7848 2.86735 23.144 2.97349C23.4761 3.07155 23.9294 3.23931 23.9247 2.56335C23.9234 2.38624 24.1405 2.35393 24.2931 2.32034C24.9632 2.17302 25.5882 1.86284 26.3106 1.89531C26.9739 1.92509 27.1529 1.48105 26.7964 0.843428C26.9918 0.687229 27.1043 0.471308 27.2094 0.25V0.25ZM5.95244 13.4155C5.25313 13.54 4.77864 13.9654 4.4938 14.5783C4.35459 14.8778 4.2333 15.1465 3.92552 15.294C3.82292 15.3431 3.6149 15.3149 3.64004 15.4499C3.65968 15.5551 3.86959 15.5331 3.98208 15.4934C4.5458 15.2953 5.10685 15.1098 5.71111 15.0569C6.04121 15.0279 6.33752 15.0757 6.6252 15.2085C6.908 15.339 6.87171 15.6086 6.88726 15.8646C6.89952 16.0636 7.05396 16.2294 7.25146 16.2397C7.88431 16.2725 8.48731 16.8135 9.15772 16.3421C9.2611 16.2694 9.48592 16.2844 9.61193 16.3467C10.3092 16.6919 11.055 16.4523 11.7716 16.5517C12.1226 16.6003 12.2474 16.2538 12.3146 15.9969C12.3968 15.6826 12.1438 15.6763 11.9011 15.6593C11.6909 15.6446 11.4728 15.4672 11.2817 15.5001C10.6237 15.6135 10.334 15.338 10.2924 14.7012C10.2841 14.5726 10.2066 14.45 10.0481 14.472C9.9414 14.4869 9.95066 14.6049 9.91029 14.6831C9.67729 15.1353 9.07413 15.2129 8.78567 14.8283C8.69816 14.7117 8.69046 14.4023 8.56335 14.4666C7.90834 14.798 7.61863 14.1848 7.18217 13.9719C6.89559 13.832 6.71743 13.7807 6.68868 14.2001C6.67344 14.4233 6.54963 14.7052 6.29997 14.631C5.94128 14.5246 6.2596 14.2738 6.27499 14.0845C6.29872 13.8008 6.50234 13.4231 5.95244 13.4155V13.4155ZM8.4518 9.94017C8.88842 9.96314 8.85229 9.94001 9.02967 9.65819C9.44618 8.99616 9.28105 8.34175 9.0636 7.68242C9.00249 7.49691 9.02684 7.15426 8.68967 7.27545C8.43295 7.3678 8.27222 7.66911 8.43861 7.89707C9.00092 8.66824 8.26107 9.04052 7.95847 9.5069C7.7693 9.79854 7.38909 10.0943 7.06795 9.54349C7.02097 9.46286 6.91272 9.39759 6.83667 9.47363C6.78216 9.52812 6.76047 9.65217 6.77571 9.73565C6.87595 10.2828 7.30346 10.1662 7.6689 10.1672C7.95077 10.168 8.1294 9.80171 8.4518 9.94017V9.94017ZM13.6468 13.7898C13.5135 13.2663 12.777 13.3116 12.6681 12.7109C12.6433 12.5738 12.4576 12.9212 12.3254 13.022C12.1162 13.1815 11.9048 13.2292 11.7752 12.9669C11.6692 12.7522 11.5551 12.6233 11.3707 12.8192C11.1598 13.0432 10.9102 13.2745 10.9507 13.6362C10.9765 13.866 11.1518 13.9972 11.3444 13.9549C11.949 13.8222 12.5089 13.9074 13.0797 14.1339C13.3189 14.2287 13.5808 14.1149 13.6468 13.7898ZM13.0508 18.7595C12.853 18.8026 12.8453 18.9476 12.835 19.1061C12.8045 19.5684 13.1341 19.8372 13.3765 20.152C13.4865 20.2947 13.5995 20.5499 13.7813 20.4718C14.0436 20.359 13.8783 20.0992 13.8287 19.9031C13.7346 19.5305 13.4622 19.2581 13.2713 18.94C13.2276 18.8668 13.133 18.8246 13.0508 18.7595Z"/>
</mask>
<path d="M27.2094 0.25C27.7449 0.359624 28.2601 0.407307 28.3455 1.17959C28.389 1.57293 28.9154 1.61317 29.3039 1.62379C30.0009 1.64295 30.1831 1.75654 30.1416 2.38307C30.1082 2.88906 30.2703 3.03876 30.7395 3.08042C31.3572 3.13524 31.936 3.31282 32.5862 3.06078C33.1713 2.83409 33.5059 3.13334 33.7837 3.84383C33.8426 3.99433 33.927 4.19504 34.1014 4.08653C34.8964 3.59195 35.8457 3.97722 36.6974 3.54078C37.2631 3.25088 38.0693 3.38221 38.6369 3.93223C38.9114 4.19821 39.2371 4.32605 39.5777 4.09223C39.9389 3.84431 40.2381 4.07243 40.4239 4.26522C41.0144 4.8775 41.681 4.69548 42.3585 4.56526C42.4491 4.54783 42.537 4.51488 42.6261 4.48922C42.994 4.38292 42.6491 5.23441 43.0616 4.87148C43.2801 4.67916 43.433 4.63892 43.6801 4.60867C44.8062 4.47069 45.6365 5.11465 46.5 5.68542L46.087 6.66364C46.0571 6.65598 46.0271 6.64896 45.9969 6.64257C45.752 6.59109 45.5284 6.15893 45.4546 6.27711C45.3019 6.52107 44.9947 6.7297 45.0346 7.07093C45.0858 7.50879 44.871 7.61224 44.4864 7.63077C44.1439 7.64725 43.794 7.7084 43.5288 7.98135C43.3128 8.20392 43.0569 8.20836 42.7505 8.19648C41.9589 8.16574 41.5329 8.54468 41.4339 9.35371C41.3322 10.1835 40.5638 10.4813 40.1573 11.0657C40.026 11.2545 39.9081 11.0098 39.8376 10.8839C39.515 10.3075 39.7149 9.77177 40.0026 9.2661C40.1418 9.02151 40.3655 8.82697 40.5421 8.6025C40.6492 8.46642 40.928 8.37897 40.801 8.16733C40.6887 7.98008 40.4305 7.92923 40.2068 7.93509C39.9273 7.94254 39.7381 8.1358 39.6093 8.35521C39.3848 8.73763 39.1202 8.68139 38.7312 8.61105C37.717 8.42777 36.667 8.32052 35.9607 9.34674C35.7737 9.61842 35.195 9.65803 35.3715 10.0992C35.5376 10.5144 36.049 10.2397 36.3954 10.3473C36.6513 10.4267 36.9964 10.3376 37.0078 10.685C37.0201 11.0595 37.3981 11.4787 36.9764 11.8123C36.8455 11.9159 36.7274 11.979 36.7096 12.1553C36.7007 12.2442 36.7036 12.3787 36.5959 12.3783C36.4939 12.378 36.5051 12.2453 36.4945 12.1599C36.4868 12.0968 36.4922 12.0324 36.4849 11.9692C36.4648 11.7919 36.5423 11.5996 36.4058 11.4401C36.3582 11.6195 36.3418 11.816 36.2574 11.9758C35.8557 12.7389 35.4274 13.4597 34.4884 13.6894C33.628 13.8998 33.5425 14.0774 33.7494 14.9534C33.8249 15.2728 33.8266 15.5448 33.4869 15.6577C33.1585 15.7669 33.0563 15.4594 32.943 15.2465C32.8556 15.0824 32.8066 14.8894 32.7782 14.7036C32.7365 14.4314 32.5866 14.4069 32.3763 14.4848C32.2126 14.5455 32.0388 14.7511 31.8894 14.5075C31.7863 14.3394 31.7206 14.2282 31.5719 14.439C31.4828 14.5653 31.3425 14.7209 31.3599 14.8438C31.3978 15.1112 31.5945 14.8948 31.7224 14.9073C32.088 14.9434 32.4325 14.9873 31.9521 15.4218C31.7342 15.6189 31.7993 15.8768 31.8493 16.1341C32.1045 17.448 31.5459 18.4186 30.3091 18.8641C30.0001 18.9754 29.6141 18.9564 29.4807 19.3957C29.3957 19.6756 29.2687 19.6519 29.1452 19.3716C28.996 19.0328 28.7726 19.2497 28.6051 19.3678C28.3777 19.5285 28.374 19.7297 28.585 19.9225C28.6786 20.008 28.7788 20.0869 28.8664 20.1783C29.4635 20.8017 29.2533 21.6744 28.4407 21.9999C28.2167 22.0897 28.1823 21.9354 28.0926 21.8071C27.8486 21.4581 27.4275 21.0463 27.1142 21.332C26.71 21.7008 27.1375 22.1388 27.4591 22.4492C27.6957 22.6775 27.9743 22.9523 27.9142 23.2489C27.7768 23.9272 28.3727 24.3397 28.4106 24.9406C28.4277 25.2115 28.6865 25.252 28.9019 25.3122C29.5336 25.4889 30.1218 25.8539 30.8201 25.7441C30.9401 25.7252 31.1165 25.7739 31.1253 25.9041C31.1379 26.0888 30.9476 26.0356 30.8364 26.0457C30.04 26.1178 29.2247 25.9825 28.5085 25.7517C27.9562 25.5738 27.4889 24.9333 27.1301 24.3988C26.832 23.9537 26.5053 23.5288 26.1519 23.1269C26.0485 23.0095 25.8553 22.9354 25.9802 22.7578C26.1211 22.5575 26.3268 22.6363 26.4729 22.766C26.685 22.9544 26.8701 23.1736 27.0691 23.3772C27.1351 23.4447 27.2295 23.5185 27.3094 23.4505C27.403 23.371 27.3028 23.2845 27.2537 23.2154C26.7354 22.4842 26.5411 21.6729 26.6122 20.779C26.6388 20.4457 26.5848 20.1121 26.0942 20.2188C25.6722 20.3107 25.6834 19.9047 25.5368 19.6956C24.9217 18.818 24.6933 18.7955 23.9031 19.5069C23.7217 19.6702 23.5228 19.8139 23.3243 19.9559C22.6418 20.4443 22.4619 21.1678 22.8126 21.9709C22.8844 22.1355 23.0604 22.3177 22.866 22.4844C22.6869 22.638 22.5359 22.4436 22.3653 22.3849C21.5779 22.1135 21.2812 21.452 21.173 20.7402C21.0116 19.6799 20.2201 19.067 19.6543 18.2903C19.5091 18.0908 19.2923 18.0487 19.0648 18.0447C18.7806 18.0397 18.494 18.0143 18.2126 18.0421C18.0375 18.0593 17.8708 18.0337 17.7064 17.9974C17.4261 17.9356 17.2599 18.2987 17.4885 18.4734C17.5975 18.5567 17.7159 18.6326 17.8167 18.7229C17.9983 18.8855 17.8114 18.984 17.7586 19.1218C17.4249 19.9939 16.5926 20.2184 15.8776 20.5496C15.4305 20.7567 15.0071 21.0697 14.484 21.1007C14.3869 21.1065 14.2903 21.1579 14.2903 21.2698C14.2903 21.4208 14.4088 21.4936 14.5348 21.505C14.8551 21.5342 15.1373 21.358 15.4437 21.3088C15.8704 21.2403 16.0762 21.5321 15.8859 21.9232C15.5106 22.6952 15.0279 23.4073 14.3366 23.95C13.278 24.7812 13.1772 25.1207 13.5742 26.3657C13.8853 27.3414 13.8488 27.4886 13.005 28.134C12.683 28.3803 12.4071 28.606 12.5672 29.0723C12.6306 29.2567 12.6461 29.5087 12.4946 29.614C11.8893 30.0356 11.6912 30.7367 11.3111 31.307C10.7001 32.2238 9.7637 32.1798 8.86281 32.2488C8.58048 32.2705 8.36759 31.9882 8.339 31.7676C8.23593 30.9734 7.84534 30.2506 7.57464 29.5502C7.15813 28.4725 6.84563 27.5434 7.26293 26.4071C7.38265 26.0809 7.2249 25.5421 7.01201 25.2253C6.65537 24.6944 6.48584 24.1596 6.50234 23.5351C6.50752 23.3362 6.40021 23.0884 6.20131 23.1175C5.65895 23.1971 5.21903 22.6933 4.76466 22.7964C4.25483 22.9122 3.6966 22.811 3.22809 23.1049C2.91339 23.3023 2.63499 23.2229 2.34841 23.033C1.62883 22.5561 1.22112 21.7761 0.593297 21.2102C0.527466 21.1508 0.487715 21.0342 0.503427 20.9466C0.719301 19.7414 0.306407 18.3554 1.43433 17.4098C1.98265 16.9501 2.19915 16.2456 2.72674 15.7745C2.94827 15.5766 2.95848 15.3087 2.62179 15.1763C2.39727 15.0879 2.16318 14.9607 2.23623 14.7163C2.358 14.309 2.12358 13.8797 2.3283 13.5069C2.51212 13.1725 2.86909 13.2332 3.18174 13.25C4.11358 13.3 4.19874 13.2279 4.03314 12.2698C3.96307 11.864 4.05891 11.6747 4.40283 11.4237C4.80174 11.1326 5.1829 10.794 5.58841 10.5052C6.24074 10.0404 6.31443 9.85985 5.84859 9.15395C5.70279 8.93311 5.6082 8.71703 5.5507 8.46832C5.39076 7.77541 5.49854 7.47727 6.14726 7.16994C6.5999 6.9556 6.93927 6.67505 7.13833 6.20629C7.48414 5.39188 8.1503 4.93025 8.93886 4.62419C9.26251 4.49857 9.60062 4.41096 9.92647 4.29041C10.507 4.0756 11.0029 3.97627 11.5292 4.53785C11.8756 4.90744 12.5366 4.85057 12.9952 5.15029C13.1511 5.25231 13.3933 5.26989 13.4909 5.40391C13.8727 5.9278 14.1525 6.19901 14.3693 5.29271C14.4191 5.08471 14.7489 5.01532 14.9268 5.22887C15.197 5.55346 15.4404 5.47742 15.7471 5.29889C16.2614 4.99948 16.8582 5.15124 17.4121 5.04241C18.0001 4.92692 17.6144 4.6714 17.5386 4.45104L17.5492 4.43789C18.0117 4.53342 18.472 4.64225 18.9376 4.71892C19.1839 4.75948 19.3575 4.7655 19.434 4.37658C19.6001 3.53238 19.9761 3.37318 20.8954 3.46047C21.2243 3.49167 21.5423 3.43448 21.8756 3.58292C22.0681 3.66862 22.4132 3.63092 22.4666 3.28621C22.5411 2.80541 22.7848 2.86735 23.144 2.97349C23.4761 3.07155 23.9294 3.23931 23.9247 2.56335C23.9234 2.38624 24.1405 2.35393 24.2931 2.32034C24.9632 2.17302 25.5882 1.86284 26.3106 1.89531C26.9739 1.92509 27.1529 1.48105 26.7964 0.843428C26.9918 0.687229 27.1043 0.471308 27.2094 0.25V0.25ZM5.95244 13.4155C5.25313 13.54 4.77864 13.9654 4.4938 14.5783C4.35459 14.8778 4.2333 15.1465 3.92552 15.294C3.82292 15.3431 3.6149 15.3149 3.64004 15.4499C3.65968 15.5551 3.86959 15.5331 3.98208 15.4934C4.5458 15.2953 5.10685 15.1098 5.71111 15.0569C6.04121 15.0279 6.33752 15.0757 6.6252 15.2085C6.908 15.339 6.87171 15.6086 6.88726 15.8646C6.89952 16.0636 7.05396 16.2294 7.25146 16.2397C7.88431 16.2725 8.48731 16.8135 9.15772 16.3421C9.2611 16.2694 9.48592 16.2844 9.61193 16.3467C10.3092 16.6919 11.055 16.4523 11.7716 16.5517C12.1226 16.6003 12.2474 16.2538 12.3146 15.9969C12.3968 15.6826 12.1438 15.6763 11.9011 15.6593C11.6909 15.6446 11.4728 15.4672 11.2817 15.5001C10.6237 15.6135 10.334 15.338 10.2924 14.7012C10.2841 14.5726 10.2066 14.45 10.0481 14.472C9.9414 14.4869 9.95066 14.6049 9.91029 14.6831C9.67729 15.1353 9.07413 15.2129 8.78567 14.8283C8.69816 14.7117 8.69046 14.4023 8.56335 14.4666C7.90834 14.798 7.61863 14.1848 7.18217 13.9719C6.89559 13.832 6.71743 13.7807 6.68868 14.2001C6.67344 14.4233 6.54963 14.7052 6.29997 14.631C5.94128 14.5246 6.2596 14.2738 6.27499 14.0845C6.29872 13.8008 6.50234 13.4231 5.95244 13.4155V13.4155ZM8.4518 9.94017C8.88842 9.96314 8.85229 9.94001 9.02967 9.65819C9.44618 8.99616 9.28105 8.34175 9.0636 7.68242C9.00249 7.49691 9.02684 7.15426 8.68967 7.27545C8.43295 7.3678 8.27222 7.66911 8.43861 7.89707C9.00092 8.66824 8.26107 9.04052 7.95847 9.5069C7.7693 9.79854 7.38909 10.0943 7.06795 9.54349C7.02097 9.46286 6.91272 9.39759 6.83667 9.47363C6.78216 9.52812 6.76047 9.65217 6.77571 9.73565C6.87595 10.2828 7.30346 10.1662 7.6689 10.1672C7.95077 10.168 8.1294 9.80171 8.4518 9.94017V9.94017ZM13.6468 13.7898C13.5135 13.2663 12.777 13.3116 12.6681 12.7109C12.6433 12.5738 12.4576 12.9212 12.3254 13.022C12.1162 13.1815 11.9048 13.2292 11.7752 12.9669C11.6692 12.7522 11.5551 12.6233 11.3707 12.8192C11.1598 13.0432 10.9102 13.2745 10.9507 13.6362C10.9765 13.866 11.1518 13.9972 11.3444 13.9549C11.949 13.8222 12.5089 13.9074 13.0797 14.1339C13.3189 14.2287 13.5808 14.1149 13.6468 13.7898ZM13.0508 18.7595C12.853 18.8026 12.8453 18.9476 12.835 19.1061C12.8045 19.5684 13.1341 19.8372 13.3765 20.152C13.4865 20.2947 13.5995 20.5499 13.7813 20.4718C14.0436 20.359 13.8783 20.0992 13.8287 19.9031C13.7346 19.5305 13.4622 19.2581 13.2713 18.94C13.2276 18.8668 13.133 18.8246 13.0508 18.7595Z" stroke="#183AA0" stroke-width="2" mask="url(#path-1-inside-1_2606_24360)"/>
</svg>
