<svg width="18" height="19" viewBox="0 0 18 19" fill="none" xmlns="http://www.w3.org/2000/svg">
<path d="M14.3333 1V1C15.8061 1 17 2.19391 17 3.66667L17 5.57143C17 5.81558 17 5.93765 16.9583 6.03327C16.9078 6.14889 16.8156 6.24117 16.7 6.29161C16.6043 6.33333 16.4823 6.33333 16.2381 6.33333L11.6667 6.33333M14.3333 1V1C12.8606 1 11.6667 2.19391 11.6667 3.66667L11.6667 6.33333M14.3333 1L5 1C3.11438 1 2.17157 1 1.58579 1.58579C0.999999 2.17157 0.999999 3.11438 1 5L1 17L3.66667 16.1111L6.33334 17L9 16.1111L11.6667 17L11.6667 6.33333" stroke="white" stroke-width="2"/>
<path d="M4.55566 4.55566L8.11122 4.55566" stroke="white" stroke-width="2" stroke-linecap="round"/>
<path d="M5.44434 8.11133H4.55545" stroke="white" stroke-width="2" stroke-linecap="round"/>
</svg>
