<svg width="20" height="18" viewBox="0 0 20 18" fill="none" xmlns="http://www.w3.org/2000/svg">
<path d="M4.5 5C3.94772 5 3.5 5.44772 3.5 6C3.5 6.55228 3.94772 7 4.5 7V5ZM8.50289 2.25722L7.57441 2.62861L8.50289 2.25722ZM8.90289 3.25722L9.83136 2.88583L8.90289 3.25722ZM18 10V13H20V10H18ZM15 16H5V18H15V16ZM2 13V3H0V13H2ZM3 2H6.64593V0H3V2ZM7.57441 2.62861L7.97441 3.62861L9.83136 2.88583L9.43136 1.88583L7.57441 2.62861ZM7.04593 5H4.5V7H7.04593V5ZM4.5 7H15V5H4.5V7ZM6.64593 2C6.99584 2 7.17772 2.0014 7.3063 2.01552C7.41031 2.02694 7.37901 2.03794 7.32297 2L8.44422 0.343866C8.13423 0.133989 7.81201 0.0590283 7.52463 0.027468C7.26181 -0.00139511 6.95183 0 6.64593 0V2ZM9.43136 1.88583C9.31776 1.60181 9.20393 1.31348 9.07952 1.08018C8.94349 0.825081 8.75422 0.553742 8.44422 0.343866L7.32297 2C7.26692 1.96206 7.26552 1.92891 7.31475 2.02124C7.37561 2.13537 7.44446 2.30373 7.57441 2.62861L9.43136 1.88583ZM7.97441 3.62861C8.23515 4.28046 8.38622 4.66518 8.45213 4.94189C8.51328 5.1986 8.44001 5.12252 8.52297 5L10.1791 6.12126C10.5595 5.55936 10.5107 4.95293 10.3977 4.47845C10.2894 4.02397 10.0677 3.47666 9.83136 2.88583L7.97441 3.62861ZM7.04593 7C7.68228 7 8.2728 7.00262 8.73498 6.93434C9.2175 6.86306 9.79868 6.68315 10.1791 6.12126L8.52297 5C8.60592 4.87748 8.70376 4.91725 8.44271 4.95581C8.16131 4.99738 7.748 5 7.04593 5V7ZM5 16C4.02892 16 3.40121 15.9979 2.9387 15.9357C2.50496 15.8774 2.36902 15.7832 2.29289 15.7071L0.87868 17.1213C1.38834 17.631 2.01669 17.8297 2.67221 17.9179C3.29896 18.0021 4.08546 18 5 18V16ZM0 13C0 13.9145 -0.00212371 14.701 0.0821405 15.3278C0.170272 15.9833 0.369018 16.6117 0.87868 17.1213L2.29289 15.7071C2.21677 15.631 2.12262 15.495 2.06431 15.0613C2.00212 14.5988 2 13.9711 2 13H0ZM18 13C18 13.9711 17.9979 14.5988 17.9357 15.0613C17.8774 15.495 17.7832 15.631 17.7071 15.7071L19.1213 17.1213C19.631 16.6117 19.8297 15.9833 19.9179 15.3278C20.0021 14.701 20 13.9145 20 13H18ZM15 18C15.9145 18 16.701 18.0021 17.3278 17.9179C17.9833 17.8297 18.6117 17.631 19.1213 17.1213L17.7071 15.7071C17.631 15.7832 17.495 15.8774 17.0613 15.9357C16.5988 15.9979 15.9711 16 15 16V18ZM20 10C20 9.08546 20.0021 8.29896 19.9179 7.67221C19.8297 7.01669 19.631 6.38834 19.1213 5.87868L17.7071 7.29289C17.7832 7.36902 17.8774 7.50496 17.9357 7.9387C17.9979 8.40121 18 9.02892 18 10H20ZM15 7C15.9711 7 16.5988 7.00212 17.0613 7.06431C17.495 7.12262 17.631 7.21677 17.7071 7.29289L19.1213 5.87868C18.6117 5.36902 17.9833 5.17027 17.3278 5.08214C16.701 4.99788 15.9145 5 15 5V7ZM2 3C2 2.50033 2.00212 2.22617 2.02769 2.03598C2.0494 1.87455 2.07032 1.92968 2 2L0.585786 0.585786C0.222571 0.949002 0.0970491 1.38628 0.0455289 1.76948C-0.00212371 2.12392 0 2.55687 0 3H2ZM3 0C2.55687 0 2.12392 -0.00212371 1.76948 0.0455289C1.38628 0.0970491 0.949002 0.222571 0.585786 0.585786L2 2C1.92968 2.07032 1.87455 2.0494 2.03598 2.02769C2.22617 2.00212 2.50033 2 3 2V0Z" fill="white"/>
</svg>
