<svg width="109" height="114" viewBox="0 0 109 114" fill="none" xmlns="http://www.w3.org/2000/svg">
<path d="M23.2974 84.0857L16.8184 67.2676C21.1194 65.1723 28.4439 62.8104 31.5686 61.8914V63.4077L32.5336 84.4992C31.9822 86.1534 30.6036 87.3941 27.9844 87.8077C25.8891 88.1385 23.9867 85.4642 23.2974 84.0857Z" fill="#C23C2C"/>
<path d="M17.0924 82.8455C17.4232 84.2792 16.7707 86.4757 16.4031 87.3947L27.8449 92.7709L30.6019 86.8433C29.83 87.5049 28.4422 87.7623 27.8449 87.8082C25.0878 87.3671 23.6633 84.8674 23.2957 83.6726L19.5737 74.5744C20.3089 73.6094 21.9448 71.3762 22.6065 70.1631C23.4336 68.6467 22.4686 67.2682 21.5036 66.9925C20.5387 66.7168 15.576 71.8173 14.7489 72.6444C13.9217 73.4715 16.6788 81.0534 17.0924 82.8455Z" fill="#F1937A"/>
<path d="M33.9124 66.0272C34.4639 64.4832 32.5339 63.6377 31.5689 63.408C31.5689 64.4005 31.523 65.2919 31.4311 65.6136C30.5488 67.709 28.674 68.8761 27.8469 69.1978C28.2605 70.0249 29.06 71.7343 28.9497 71.9548C28.8119 72.2305 28.3983 72.3684 28.2605 73.8848C28.1502 75.0979 29.4093 75.6769 30.0526 75.8147C29.7769 76.0904 29.1703 77.0278 28.9497 78.5718C28.7292 80.1157 30.2364 80.7774 31.0175 80.9153C30.3558 81.4667 30.3742 82.6154 30.4661 83.1209C30.9073 84.6649 32.3042 84.4994 32.9475 84.2237C34.4639 83.5345 34.8774 80.9153 34.7396 80.3638C34.6293 79.9227 33.9584 78.8015 33.6367 78.2961C34.0503 77.8825 34.326 76.9175 34.1882 75.9526C34.0779 75.1806 33.3151 74.1605 32.9475 73.7469L33.361 73.0577C33.9124 72.0927 32.9475 70.7142 32.5339 70.3006L31.4311 69.1978C32.0285 68.7842 33.361 67.5711 33.9124 66.0272Z" fill="#F1937A"/>
<path d="M15.0797 87.2566L4.41113 114H24.6815L28.9489 91.5355C26.3885 88.1124 18.6359 87.2566 15.0797 87.2566Z" fill="#183AA0"/>
<path d="M66.3964 32.6344C64.8831 29.1503 60.8319 27.5526 57.3478 29.0659L62.828 41.6829C66.3121 40.1696 67.9097 36.1185 66.3964 32.6344Z" fill="#C23C2C"/>
<path d="M10.2 68.3708C8.10462 68.04 6.20225 65.7516 5.51299 64.6488L1.79096 56.3776C1.01899 52.5177 3.95066 49.7147 5.51299 48.7957L5.51311 48.7957C8.82168 47.1414 17.9198 42.5923 22.4689 39.5596C27.018 36.5268 34.8756 29.4963 37.6327 26.6014C39.8383 24.2855 44.2496 17.7329 46.1796 14.7461L67.1332 60.2375C65.8465 59.9618 61.7569 59.3001 55.6914 58.859C48.1095 58.3076 39.0112 59.9618 36.2542 60.6511C33.4971 61.3403 20.8146 66.1652 17.3683 67.1301C14.5089 67.9308 12.8192 68.7844 10.2 68.3708Z" fill="#183AA0"/>
<rect x="44.9678" y="12.98" width="4.85754" height="54.0684" rx="2.42877" transform="rotate(-24.3466 44.9678 12.98)" fill="#F7941D"/>
<path d="M18.4729 114L24.5384 88.7727C27.5712 89.7377 28.3983 90.8405 28.9497 91.5298L24.5384 114H18.4729Z" fill="black" fill-opacity="0.15"/>
<path d="M19.3075 70.1381C21.0039 69.3398 21.3134 67.7542 21.2562 67.0612C21.1626 66.7253 18.8258 68.7336 17.6692 69.7798C17.9664 70.4573 18.8853 70.3009 19.3075 70.1381Z" fill="#F7B59D"/>
<path d="M29.8107 75.2107C28.9284 74.4387 28.8917 73.2348 28.9836 72.7293C30.7757 72.4536 31.327 72.8672 31.1892 73.6943C31.0789 74.356 30.2242 74.9809 29.8107 75.2107Z" fill="#F6B49C"/>
<path d="M30.3629 79.8975C29.4807 79.1255 29.4439 77.9216 29.5358 77.4161C31.3279 77.1404 31.8793 77.554 31.7414 78.3811C31.6312 79.0428 30.7765 79.6677 30.3629 79.8975Z" fill="#F6B49C"/>
<rect y="58.5803" width="4.13558" height="7.27314" rx="2.06779" transform="rotate(-23.5291 0 58.5803)" fill="#C23C2C"/>
<path d="M31.5087 83.949C30.863 83.3685 30.836 82.4631 30.9033 82.083C32.215 81.8757 32.6186 82.1867 32.5177 82.8087C32.4369 83.3063 31.8114 83.7762 31.5087 83.949Z" fill="#F6B49C"/>
<path d="M32.5352 61.7539L22.8855 39.2839L21.507 40.1111C19.7149 41.076 9.15542 46.9761 4.9647 49.0715C0.773973 51.1668 1.10482 54.7234 1.79408 56.2398C2.85095 58.5374 5.21283 63.6563 6.20537 65.7517C7.44605 68.3709 10.341 68.5087 12.5466 68.5087C14.3111 68.5087 29.3646 63.1325 32.5352 61.7539Z" fill="#F5A695"/>
<path d="M79.8805 4.68699L68.8523 16.1288L77.537 10.339L81.3969 16.1288L91.3223 0L81.3969 10.339L79.8805 4.68699Z" fill="#183AA0"/>
<path d="M95.8275 23.215L81.2667 29.5805L91.5039 27.5444L92.8614 34.3692L108.192 23.2506L95.0715 29.0178L95.8275 23.215Z" fill="#183AA0"/>
<path d="M94.2915 45.7995L79.0093 41.4416L88.2012 46.3869L84.9043 52.5148L103.805 53.6968L90.015 49.794L94.2915 45.7995Z" fill="#183AA0"/>
<path d="M3.16943 59.1343L3.18364 59.0896C3.50222 58.0872 3.88703 56.8765 5.78864 55.9637C9.23495 54.3095 36.1162 40.1106 43.0089 33.4937C49.9015 26.8767 49.7637 27.0146 50.7286 25.7739L53.0721 31.0123C50.4989 34.3208 46.7309 36.4437 41.2168 39.9728C35.7027 43.5018 13.1408 55.2285 7.02931 58.7207C4.24857 60.0764 4.49157 61.9052 4.77489 62.7157L4.96152 63.132C4.96152 63.132 4.86612 62.9767 4.77489 62.7157L3.16943 59.1343Z" fill="#FFFAFA" fill-opacity="0.5"/>
<path d="M30.0535 56.9297C39.5378 53.952 56.2456 53.7591 63.4139 54.0348L66.3088 60.1003C55.5563 57.6189 38.7383 60.1003 36.9462 60.5138C35.1541 60.9274 32.5349 61.7545 29.3643 62.9952C26.8278 63.9877 17.9225 66.901 13.7869 68.2336C9.26534 69.1158 7.03212 67.1308 6.48071 66.0279C10.3865 64.2359 20.5693 59.9073 30.0535 56.9297Z" fill="#B8B8B8" fill-opacity="0.15"/>
<path d="M20.4011 42.0407L23.0203 39.1458L32.5322 61.7536H28.8101L31.1536 58.9965H27.983L30.0508 56.2395H26.4666L28.8101 52.931H25.226L27.4316 50.3118H24.1231L26.4666 47.8305H22.7446L25.226 44.9356H21.7797L24.1231 42.0407H20.4011Z" fill="#183AA0"/>
</svg>
