<svg width="22" height="20" viewBox="0 0 22 20" fill="none" xmlns="http://www.w3.org/2000/svg">
<path fill-rule="evenodd" clip-rule="evenodd" d="M16.2135 0.123728C15.0714 -1.45286e-05 13.6318 -8.0335e-06 11.7952 1.32337e-07H9.70475C7.86821 -8.0335e-06 6.42861 -1.45286e-05 5.28648 0.123728C4.12094 0.250006 3.17656 0.512324 2.37024 1.09815C1.88209 1.45281 1.45281 1.88209 1.09815 2.37024C0.93647 2.59277 0.798011 2.82781 0.679871 3.07797C0.318084 3.84404 0.156711 4.73237 0.0780647 5.79168C-4.5076e-06 6.84323 -2.43067e-06 8.13224 1.32337e-07 9.72156V9.79525C-8.0335e-06 11.6318 -1.45286e-05 13.0714 0.123728 14.2135C0.250006 15.3791 0.512324 16.3234 1.09815 17.1298C1.45281 17.6179 1.88209 18.0472 2.37024 18.4018C3.17656 18.9877 4.12094 19.25 5.28648 19.3763C6.42859 19.5 7.86817 19.5 9.70465 19.5H11.7953C13.6318 19.5 15.0714 19.5 16.2135 19.3763C17.3791 19.25 18.3234 18.9877 19.1298 18.4018C19.6179 18.0472 20.0472 17.6179 20.4018 17.1298C20.9877 16.3234 21.25 15.3791 21.3763 14.2135C21.5 13.0714 21.5 11.6318 21.5 9.79535V9.7209C21.5 8.12073 21.5 6.82486 21.4202 5.76904C21.3399 4.70506 21.1748 3.81379 20.8046 3.04546C20.6899 2.80734 20.5565 2.58304 20.4018 2.37024C20.0472 1.88209 19.6179 1.45281 19.1298 1.09815C18.3234 0.512324 17.3791 0.250006 16.2135 0.123728ZM3.25191 2.31168C3.75992 1.94259 4.41013 1.72745 5.44804 1.615C6.49999 1.50103 7.85843 1.5 9.75 1.5H11.75C13.6416 1.5 15 1.50103 16.052 1.615C17.0899 1.72745 17.7401 1.94259 18.2481 2.31168C18.6087 2.57369 18.9259 2.89081 19.1879 3.25139L17.2907 5.14861C15.6091 6.83026 14.4001 8.03703 13.3572 8.83267C12.3317 9.6151 11.5556 9.92893 10.75 9.92893C9.94438 9.92893 9.16825 9.6151 8.14275 8.83267C7.09994 8.03703 5.89092 6.83026 4.20926 5.1486L2.31205 3.25139C2.57412 2.89081 2.89128 2.57369 3.25191 2.31168ZM19.7873 4.77337C19.8477 5.09361 19.8925 5.45891 19.9245 5.88204C19.9995 6.87493 20 8.11482 20 9.75C20 11.6416 19.999 13 19.885 14.052C19.7725 15.0899 19.5574 15.7401 19.1883 16.2481C18.9262 16.6089 18.6089 16.9262 18.2481 17.1883C17.7401 17.5574 17.0899 17.7725 16.052 17.885C15 17.999 13.6416 18 11.75 18H9.75C7.85843 18 6.49999 17.999 5.44804 17.885C4.41013 17.7725 3.75992 17.5574 3.25191 17.1883C2.89111 16.9262 2.57382 16.6089 2.31168 16.2481C1.94259 15.7401 1.72745 15.0899 1.615 14.052C1.50103 13 1.5 11.6416 1.5 9.75C1.5 8.12645 1.50047 6.89244 1.57395 5.90274C1.60601 5.47084 1.65131 5.09885 1.71271 4.77337L3.18917 6.24983C4.82144 7.88212 6.10062 9.16131 7.23288 10.0252C8.39181 10.9094 9.48455 11.4289 10.75 11.4289C12.0155 11.4289 13.1082 10.9094 14.2671 10.0252C15.3994 9.16132 16.6785 7.88213 18.3108 6.24986L19.7873 4.77337Z" fill="#183AA0"/>
</svg>
