<svg width="11" height="13" viewBox="0 0 11 13" fill="none" xmlns="http://www.w3.org/2000/svg">
<path d="M0.5 1.7V11.3C0.5 11.6183 0.624747 11.9235 0.846799 12.1485C1.06885 12.3736 1.37002 12.5 1.68404 12.5H8.78831C9.10234 12.5 9.40351 12.3736 9.62556 12.1485C9.84761 11.9235 9.97236 11.6183 9.97236 11.3V4.3052C9.97234 4.14534 9.9408 3.98709 9.8796 3.83975C9.8184 3.69241 9.72876 3.55895 9.61596 3.4472L6.98738 0.842C6.76618 0.622795 6.46911 0.500039 6.15973 0.5H1.68404C1.37002 0.5 1.06885 0.626428 0.846799 0.851472C0.624747 1.07652 0.5 1.38174 0.5 1.7V1.7Z" stroke="#183AA0" stroke-width="0.5" stroke-linecap="round" stroke-linejoin="round"/>
<path d="M6.41992 0.5V2.9C6.41992 3.21826 6.54467 3.52348 6.76672 3.74853C6.98877 3.97357 7.28994 4.1 7.60397 4.1H9.97206" stroke="#183AA0" stroke-width="0.5" stroke-linejoin="round"/>
</svg>
