<svg width="22" height="22" viewBox="0 0 22 22" fill="none" xmlns="http://www.w3.org/2000/svg">
<path d="M11.7401 1.5C12.6009 1.5 12.9819 1.50076 13.2961 1.52889C16.7894 1.84165 19.558 4.61017 19.8707 8.10348C19.8989 8.41768 19.8996 8.79868 19.8996 9.65955V10.6495C19.8996 11.0637 20.2354 11.3995 20.6496 11.3995C21.0638 11.3995 21.3996 11.0637 21.3996 10.6495V9.60911C21.3996 8.81221 21.3996 8.35934 21.3647 7.96971C20.9873 3.75365 17.646 0.412337 13.4299 0.034863C13.0402 -2.31192e-05 12.5874 -1.45174e-05 11.7904 6.22335e-07H10.7501C10.3359 6.22335e-07 10.0001 0.335789 10.0001 0.750002C10.0001 1.16422 10.3359 1.5 10.7501 1.5L11.7401 1.5Z" fill="#183AA0"/>
<path fill-rule="evenodd" clip-rule="evenodd" d="M5.86183 2.7753C4.80974 1.80857 3.19259 1.80857 2.1405 2.7753C2.09742 2.81489 2.05142 2.86089 1.9917 2.92063L1.09419 3.81813C0.191081 4.72125 -0.188038 6.02317 0.0890243 7.26995C1.66099 14.3438 7.18553 19.8683 14.2594 21.4403C15.5062 21.7174 16.8081 21.3383 17.7112 20.4351L18.6086 19.5377C18.6684 19.478 18.7144 19.4319 18.754 19.3888C19.7208 18.3367 19.7208 16.7196 18.754 15.6675C18.7144 15.6244 18.6684 15.5784 18.6086 15.5186L17.1394 14.0493C16.1193 13.0292 14.5787 12.7375 13.2563 13.314C12.4992 13.644 11.6172 13.4769 11.0332 12.8929L8.63639 10.4961C8.05239 9.91213 7.88536 9.03019 8.21538 8.27308C8.79184 6.95062 8.50009 5.41009 7.47999 4.38999L6.01066 2.92065C5.95092 2.8609 5.90492 2.81489 5.86183 2.7753ZM3.15541 3.87982C3.63363 3.44039 4.3687 3.44039 4.84692 3.87982C4.86343 3.89499 4.88507 3.91638 4.96114 3.99245L6.41933 5.45065C7.00333 6.03465 7.17036 6.9166 6.84034 7.6737C6.26388 8.99617 6.55563 10.5367 7.57573 11.5568L9.97254 13.9536C10.9926 14.9737 12.5332 15.2655 13.8556 14.689C14.6127 14.359 15.4947 14.526 16.0787 15.11L17.5369 16.5682C17.6129 16.6443 17.6343 16.6659 17.6495 16.6824C18.0889 17.1606 18.0889 17.8957 17.6495 18.3739C17.6343 18.3904 17.6129 18.4121 17.5369 18.4881L16.6505 19.3745C16.1101 19.915 15.3309 20.1418 14.5848 19.976C8.07946 18.5304 2.99893 13.4499 1.5533 6.94455C1.3875 6.19841 1.61438 5.41927 2.15485 4.87879L3.0412 3.99245C3.11726 3.91639 3.1389 3.89499 3.15541 3.87982Z" fill="#183AA0"/>
<path d="M11.4571 3.53554C11.0429 3.53554 10.7071 3.87132 10.7071 4.28553C10.7071 4.69975 11.0429 5.03553 11.4571 5.03553H12.0228C12.0337 5.03553 12.0438 5.03553 12.0532 5.03554C12.1189 5.03555 12.1494 5.03561 12.1748 5.03597C14.4744 5.0689 16.3306 6.9251 16.3635 9.22467C16.3639 9.25375 16.364 9.28946 16.364 9.3767V9.94239C16.364 10.3566 16.6997 10.6924 17.114 10.6924C17.5282 10.6924 17.864 10.3566 17.864 9.94239V9.36944C17.864 9.35973 17.864 9.35049 17.864 9.34168C17.8639 9.28 17.8639 9.23929 17.8634 9.20319C17.8188 6.092 15.3075 3.58068 12.1963 3.53612C12.155 3.53553 12.1077 3.53553 12.03 3.53554H11.4571Z" fill="#183AA0"/>
</svg>
